<svg id="Icon_ionic-logo-android" data-name="Icon ionic-logo-android" xmlns="http://www.w3.org/2000/svg" width="130.832" height="143.089" viewBox="0 0 130.832 143.089">
  <g id="Group_1" data-name="Group 1" transform="translate(0 41.716)">
    <path id="Path_1" data-name="Path 1" d="M0,28.465V61.848a6.188,6.188,0,0,0,.3,1.9,5.691,5.691,0,0,0,.859,1.671A4.312,4.312,0,0,0,2.5,66.606a3.565,3.565,0,0,0,1.75.45l10.66-.02V86.4a8.934,8.934,0,0,0,17.868-.049V67l18.212-.034V86.3a9.028,9.028,0,0,0,.229,2.026A8.837,8.837,0,0,0,54.259,93.2a7.91,7.91,0,0,0,1.171.843,8.159,8.159,0,0,0,1.321.627,8.372,8.372,0,0,0,1.439.389,8.586,8.586,0,0,0,1.526.131H59.9a8.921,8.921,0,0,0,8.9-8.943V66.935l10.229-.019a3.586,3.586,0,0,0,1.754-.455,4.268,4.268,0,0,0,1.33-1.185,5.642,5.642,0,0,0,.844-1.657,6.162,6.162,0,0,0,.3-1.872V.086L0,0Z" transform="translate(23.899 5.992)" fill="#80b0e1"/>
    <path id="Path_2" data-name="Path 2" d="M8.88.012A8.865,8.865,0,0,0,0,8.907V44.536a8.884,8.884,0,0,0,2.6,6.3A8.878,8.878,0,0,0,17.058,48a8.947,8.947,0,0,0,.695-3.472V8.923A8.869,8.869,0,0,0,8.88.012Z" transform="translate(113.079 0.147)" fill="#80b0e1"/>
    <path id="Path_3" data-name="Path 3" d="M8.968.012A8.919,8.919,0,0,0,0,8.951V44.756a8.964,8.964,0,1,0,17.929-.012V8.968A8.947,8.947,0,0,0,8.968.012Z" transform="translate(0)" fill="#80b0e1"/>
  </g>
  <path id="Path_4" data-name="Path 4" d="M62.2,9.538l6.862-8.116a.239.239,0,0,0,.045-.176.64.64,0,0,0-.077-.232A1.432,1.432,0,0,0,68.85.753a2.178,2.178,0,0,0-.268-.261,1.66,1.66,0,0,0-.313-.181,1.22,1.22,0,0,0-.3-.09.576.576,0,0,0-.243.007A.224.224,0,0,0,67.58.34l-7.122,8.45a42.012,42.012,0,0,0-4-1.369q-2.109-.607-4.446-1.043t-4.921-.668q-2.584-.232-5.425-.245-2.858-.022-5.455.185t-4.952.612q-2.354.4-4.473.991A41.741,41.741,0,0,0,22.77,8.576L15.694.216a.3.3,0,0,0-.162-.1.648.648,0,0,0-.243-.011A1.141,1.141,0,0,0,15,.188a1.524,1.524,0,0,0-.309.174,1.925,1.925,0,0,0-.27.234,1.19,1.19,0,0,0-.182.244.611.611,0,0,0-.077.238.362.362,0,0,0,.045.214L21.02,9.352A32.039,32.039,0,0,0,10.214,16.9a35.415,35.415,0,0,0-6.3,9.477A45.488,45.488,0,0,0,0,41.785l83.108.108a42.7,42.7,0,0,0-.884-6.3A43.383,43.383,0,0,0,79.26,26.6a35.444,35.444,0,0,0-6.265-9.434A32.828,32.828,0,0,0,62.2,9.538ZM23.4,27.969a5.031,5.031,0,0,1-1.948-.4,5.1,5.1,0,0,1-1.6-1.068,5.013,5.013,0,0,1-1.082-1.577,4.86,4.86,0,0,1-.005-3.84,4.949,4.949,0,0,1,1.074-1.572,5.016,5.016,0,0,1,1.6-1.061,5.067,5.067,0,0,1,5.509,1.077,5.013,5.013,0,0,1,1.082,1.576,4.86,4.86,0,0,1,.005,3.839,4.949,4.949,0,0,1-1.073,1.572,5.016,5.016,0,0,1-1.6,1.062A5.069,5.069,0,0,1,23.4,27.969Zm36.573.07a5.008,5.008,0,0,1-1.941-.394,5.082,5.082,0,0,1-1.594-1.066A5.005,5.005,0,0,1,55.362,25a4.859,4.859,0,0,1-.005-3.834,4.942,4.942,0,0,1,1.07-1.57,5.04,5.04,0,0,1,5.49-1.051,5.082,5.082,0,0,1,1.593,1.067,5.005,5.005,0,0,1,1.078,1.574,4.83,4.83,0,0,1,0,3.833,4.976,4.976,0,0,1-1.078,1.569,5.053,5.053,0,0,1-1.593,1.06A5,5,0,0,1,59.976,28.039Z" transform="translate(23.899 0)" fill="#80b0e1"/>
</svg>
